<svg width="80" height="80" viewBox="0 0 80 80" fill="none" xmlns="http://www.w3.org/2000/svg">
<rect width="80" height="80" rx="40" fill="#FD960C"/>
<path d="M37.4878 38.428L29.1723 24.0269C28.6803 23.1766 27.4503 23.1766 26.9584 24.0269L18.6428 38.428C18.0813 39.4013 18.0813 40.6045 18.6428 41.5778L26.9584 55.9789C27.4503 56.8292 28.6803 56.8292 29.1723 55.9789L37.4878 41.5778C38.0493 40.6045 38.0493 39.4013 37.4878 38.428Z" fill="white"/>
<path d="M60.4965 42.1123H43.8654C42.7424 42.1123 41.6996 42.7112 41.1381 43.6845L32.8226 58.0856C32.3306 58.9359 32.9456 60.0001 33.9295 60.0001H50.5606C51.6836 60.0001 52.7264 59.4012 53.2879 58.4279L61.6035 44.0268C62.0954 43.1765 61.4805 42.1123 60.4965 42.1123Z" fill="white"/>
<path d="M32.824 21.9144L41.1396 36.3156C41.7011 37.2889 42.7438 37.8878 43.8668 37.8878H60.4979C61.4819 37.8878 62.0969 36.8236 61.6049 35.9733C55.8936 26.0909 45.3428 20 33.9256 20C32.9417 20 32.3267 21.0642 32.8187 21.9144H32.824Z" fill="white"/>
</svg>
