<svg width="104" height="92" viewBox="0 0 104 92" fill="none" xmlns="http://www.w3.org/2000/svg">
<path d="M1.45426 42.4374L20.2971 9.8047C23.3913 4.17662 29.3043 0.679688 35.7269 0.679688H36.085C61.9561 0.679688 85.8641 14.4816 98.8056 36.8749C102.026 42.5314 102.024 49.4677 98.803 55.1235L79.9602 87.7562C78.6878 89.9616 76.3249 91.3187 73.7802 91.3187H36.0945H35.715C29.2992 91.3187 23.3916 87.8276 20.2971 82.2073L1.45426 49.5746C0.181913 47.3692 0.181913 44.6427 1.45426 42.4374Z" fill="white"/>
<path d="M23.1999 12.8533L23.2 12.8534L23.205 12.8442C25.9722 7.81094 31.2603 4.68359 37.004 4.68359H37.3345C61.0267 4.68359 82.9212 17.3228 94.7734 37.8298C97.6564 42.8952 97.655 49.1063 94.7706 54.171C94.7705 54.1713 94.7704 54.1715 94.7702 54.1717L77.3853 84.2795L77.3852 84.2797C76.301 86.159 74.2863 87.3167 72.116 87.3167H37.3432H36.9931C31.2554 87.3167 25.9723 84.1946 23.2049 79.1684L23.205 79.1683L23.1999 79.1595L5.81359 49.0493C4.7288 47.169 4.7288 44.8438 5.81359 42.9635L23.1999 12.8533Z" fill="white" stroke="black"/>
<path d="M45.6424 43.092L30.2586 16.4499C29.3484 14.8769 27.073 14.8769 26.1628 16.4499L10.7791 43.092C9.74031 44.8926 9.74031 47.1185 10.7791 48.919L26.1628 75.5612C27.073 77.1342 29.3484 77.1342 30.2586 75.5612L45.6424 48.919C46.6811 47.1185 46.6811 44.8926 45.6424 43.092Z" fill="#00A39B"/>
<path d="M88.2092 49.9076H57.4416C55.3641 49.9076 53.4349 51.0156 52.3961 52.8162L37.0124 79.4583C36.1022 81.0313 37.2399 83 39.0603 83H69.8278C71.9053 83 73.8345 81.892 74.8733 80.0914L90.257 53.4493C91.1672 51.8763 90.0295 49.9076 88.2092 49.9076Z" fill="#FD960C"/>
<path d="M37.0145 12.5417L52.3983 39.1838C53.4371 40.9844 55.3662 42.0924 57.4438 42.0924H88.2113C90.0317 42.0924 91.1694 40.1237 90.2592 38.5507C79.6934 20.2682 60.1743 9 39.0525 9C37.2322 9 36.0945 10.9687 37.0047 12.5417H37.0145Z" fill="#F33564"/>
</svg>
