<svg width="81" height="80" viewBox="0 0 81 80" fill="none" xmlns="http://www.w3.org/2000/svg">
<rect x="0.5" width="80" height="80" rx="40" fill="#F33564"/>
<path d="M37.9878 38.428L29.6723 24.0269C29.1803 23.1766 27.9503 23.1766 27.4584 24.0269L19.1428 38.428C18.5813 39.4013 18.5813 40.6045 19.1428 41.5778L27.4584 55.9789C27.9503 56.8292 29.1803 56.8292 29.6723 55.9789L37.9878 41.5778C38.5493 40.6045 38.5493 39.4013 37.9878 38.428Z" fill="white"/>
<path d="M60.997 42.1123H44.3659C43.2429 42.1123 42.2001 42.7112 41.6386 43.6845L33.3231 58.0856C32.8311 58.9359 33.4461 60.0001 34.43 60.0001H51.0611C52.1841 60.0001 53.2269 59.4012 53.7884 58.4279L62.104 44.0268C62.5959 43.1765 61.981 42.1123 60.997 42.1123Z" fill="white"/>
<path d="M33.324 21.9144L41.6396 36.3156C42.2011 37.2889 43.2438 37.8878 44.3668 37.8878H60.9979C61.9819 37.8878 62.5969 36.8236 62.1049 35.9733C56.3936 26.0909 45.8428 20 34.4256 20C33.4417 20 32.8267 21.0642 33.3187 21.9144H33.324Z" fill="white"/>
</svg>
