<svg width="326" height="122" viewBox="0 0 326 122" fill="none" xmlns="http://www.w3.org/2000/svg">
<rect width="325.58" height="122" rx="4" fill="white"/>
<path d="M59.6424 58.0914L44.2586 31.4493C43.3484 29.8763 41.073 29.8763 40.1629 31.4493L24.7791 58.0914C23.7403 59.8919 23.7403 62.1179 24.7791 63.9184L40.1629 90.5606C41.073 92.1336 43.3484 92.1336 44.2586 90.5606L59.6424 63.9184C60.6811 62.1179 60.6811 59.8919 59.6424 58.0914Z" fill="#00A39B"/>
<path d="M102.209 64.9082H71.441C69.3634 64.9082 67.4343 66.0162 66.3955 67.8168L51.0117 94.4589C50.1016 96.0319 51.2393 98.0006 53.0596 98.0006H83.8272C85.9047 98.0006 87.8339 96.8926 88.8726 95.0921L104.256 68.4499C105.167 66.8769 104.029 64.9082 102.209 64.9082Z" fill="#FD960C"/>
<path d="M51.0138 27.5417L66.3976 54.1838C67.4364 55.9844 69.3655 57.0924 71.4431 57.0924H102.211C104.031 57.0924 105.169 55.1237 104.258 53.5507C93.6926 35.2682 74.1736 24 53.0518 24C51.2315 24 50.0938 25.9687 51.0039 27.5417H51.0138Z" fill="#F33564"/>
<path d="M127.998 82V43.36H136.158L147.498 66.58L158.838 43.36H166.938V82H158.838V56.86L149.838 75.34H145.158L136.098 56.86V82H127.998ZM173.76 82V43.36H181.86V82H173.76ZM206.281 82.6C193.761 82.6 187.501 76.02 187.501 62.86C187.501 55.78 189.081 50.66 192.241 47.5C195.401 44.34 200.081 42.76 206.281 42.76C212.481 42.76 217.161 44.34 220.321 47.5C223.481 50.66 225.061 55.78 225.061 62.86C225.061 76.02 218.801 82.6 206.281 82.6ZM206.281 75.7C209.921 75.7 212.581 74.66 214.261 72.58C215.981 70.46 216.841 67.22 216.841 62.86C216.841 58.02 215.981 54.62 214.261 52.66C212.581 50.66 209.921 49.66 206.281 49.66C202.641 49.66 199.961 50.66 198.241 52.66C196.561 54.62 195.721 58.02 195.721 62.86C195.721 67.22 196.561 70.46 198.241 72.58C199.961 74.66 202.641 75.7 206.281 75.7ZM239.021 82V49.6H227.141V43.36H258.941V49.6H247.121V82H239.021ZM279.816 82.6C267.296 82.6 261.036 76.02 261.036 62.86C261.036 55.78 262.616 50.66 265.776 47.5C268.936 44.34 273.616 42.76 279.816 42.76C286.016 42.76 290.696 44.34 293.856 47.5C297.016 50.66 298.596 55.78 298.596 62.86C298.596 76.02 292.336 82.6 279.816 82.6ZM279.816 75.7C283.456 75.7 286.116 74.66 287.796 72.58C289.516 70.46 290.376 67.22 290.376 62.86C290.376 58.02 289.516 54.62 287.796 52.66C286.116 50.66 283.456 49.66 279.816 49.66C276.176 49.66 273.496 50.66 271.776 52.66C270.096 54.62 269.256 58.02 269.256 62.86C269.256 67.22 270.096 70.46 271.776 72.58C273.496 74.66 276.176 75.7 279.816 75.7Z" fill="#141515"/>
</svg>
